<?xml version="1.0" standalone="no"?>
<!DOCTYPE svg PUBLIC "-//W3C//DTD SVG 20010904//EN"
 "http://www.w3.org/TR/2001/REC-SVG-20010904/DTD/svg10.dtd">
<svg version="1.0" xmlns="http://www.w3.org/2000/svg"
 width="395.000000pt" height="91.000000pt" viewBox="0 0 395.000000 91.000000"
 preserveAspectRatio="xMidYMid meet">

<g transform="translate(0.000000,91.000000) scale(0.100000,-0.100000)"
fill="#fff" stroke="none">
<path d="M196 622 c-23 -37 -33 -260 -15 -325 14 -53 33 -42 37 21 3 49 4 52
31 52 26 0 29 -4 40 -55 7 -32 18 -55 25 -55 10 0 15 40 20 163 7 157 4 197
-15 197 -15 0 -28 -44 -35 -124 -5 -52 -11 -76 -20 -76 -7 0 -20 -3 -28 -6
-14 -6 -16 3 -10 79 4 46 4 96 0 111 -6 26 -20 34 -30 18z"/>
<path d="M996 575 c-12 -32 -28 -191 -24 -242 5 -63 28 -94 52 -74 9 7 28 38
42 69 24 50 28 54 31 32 10 -62 25 -100 39 -100 12 0 14 14 12 83 -3 80 -4 82
-29 85 -21 2 -35 -6 -63 -39 l-36 -43 1 35 c0 19 4 66 8 104 4 39 6 78 3 88
-5 21 -28 23 -36 2z"/>
<path d="M2506 582 c-11 -18 -26 -141 -26 -219 0 -60 4 -86 15 -97 24 -24 44
-8 78 63 l32 66 6 -58 c12 -110 52 -103 47 8 -2 51 -7 71 -20 78 -22 15 -62
-7 -89 -47 l-20 -31 3 119 c2 83 0 120 -9 123 -6 2 -14 0 -17 -5z"/>
<path d="M739 564 c-10 -12 -14 -48 -14 -128 0 -123 7 -161 31 -170 23 -9 37
3 23 20 -8 10 -10 56 -8 151 4 139 -2 163 -32 127z"/>
<path d="M1517 562 c-18 -19 -36 -90 -37 -138 0 -21 -6 -34 -17 -39 -17 -6
-17 -7 -1 -19 9 -7 22 -35 28 -61 22 -99 55 -103 47 -6 l-6 69 30 6 c38 7 37
26 -2 26 l-30 0 7 58 c8 73 20 98 39 82 21 -17 37 -3 25 21 -14 24 -61 25 -83
1z"/>
<path d="M851 521 c-6 -11 -11 -26 -11 -34 0 -8 -9 -17 -20 -20 -23 -6 -27
-37 -5 -37 11 0 15 -12 15 -47 0 -62 27 -117 59 -121 29 -4 51 20 51 55 0 27
-15 31 -24 6 -11 -29 -26 5 -26 60 0 40 3 47 20 47 26 0 26 26 1 33 -13 3 -21
15 -23 38 -4 38 -22 49 -37 20z"/>
<path d="M2350 505 c-6 -19 -20 -37 -31 -40 -25 -8 -24 -25 1 -32 17 -4 20
-14 20 -54 0 -28 7 -66 15 -85 13 -31 18 -35 47 -32 27 2 34 9 42 36 10 38 0
55 -18 30 -19 -26 -26 -12 -26 49 0 46 3 53 20 53 11 0 20 4 20 10 0 5 -9 14
-20 20 -11 6 -20 19 -20 30 0 57 -33 67 -50 15z"/>
<path d="M3360 515 c-5 -14 -10 -31 -10 -36 0 -5 -6 -9 -14 -9 -22 0 -31 -22
-15 -34 8 -6 20 -42 26 -79 13 -76 25 -97 58 -97 25 0 39 14 48 47 7 29 -8 39
-22 16 -14 -26 -21 -12 -28 53 -4 37 -3 55 4 51 6 -4 18 0 28 7 18 13 18 14
-3 25 -12 6 -25 26 -30 43 -10 41 -29 47 -42 13z"/>
<path d="M1948 458 c-16 -30 -15 -147 1 -176 19 -36 44 -23 61 30 16 52 27 60
32 26 5 -36 35 -34 58 4 19 32 20 32 20 8 0 -40 11 -70 25 -70 14 0 31 108 23
146 -6 33 -35 27 -62 -12 l-25 -37 -3 39 c-5 58 -35 53 -71 -11 l-28 -50 6 42
c11 71 -11 107 -37 61z"/>
<path d="M1639 454 c-20 -25 -24 -154 -6 -179 20 -27 42 -7 51 45 10 63 25 88
48 82 18 -4 19 -3 9 17 -14 25 -28 27 -53 4 -17 -15 -18 -15 -18 10 0 33 -14
42 -31 21z"/>
<path d="M3670 451 c-15 -28 -22 -122 -12 -156 5 -20 15 -30 27 -30 16 0 22
12 33 60 15 66 27 86 48 78 9 -3 14 1 14 11 0 22 -28 32 -51 17 -16 -9 -19 -8
-19 8 0 26 -27 34 -40 12z"/>
<path d="M613 429 c-37 -23 -87 -117 -77 -142 11 -29 51 -20 81 18 l27 34 11
-32 c5 -17 17 -33 25 -35 13 -2 14 11 10 85 -4 79 -7 88 -25 91 -11 1 -34 -7
-52 -19z m8 -56 c-5 -10 -17 -27 -26 -38 -16 -19 -16 -19 -4 5 13 27 29 50 36
50 2 0 -1 -8 -6 -17z"/>
<path d="M1184 414 c-4 -20 -3 -49 2 -63 12 -32 52 -41 71 -15 11 15 13 9 13
-44 0 -60 -15 -112 -32 -112 -4 0 -8 5 -8 10 0 6 -5 10 -11 10 -6 0 -9 -10 -7
-22 5 -35 55 -31 82 5 17 23 22 46 25 118 1 49 0 101 -3 114 -9 34 -37 32 -61
-5 l-20 -30 -5 32 c-7 49 -37 50 -46 2z"/>
<path d="M1779 404 c-22 -49 -19 -86 8 -116 34 -38 93 -12 113 48 22 65 -7
114 -66 114 -32 0 -37 -4 -55 -46z m79 -24 c3 -30 -20 -66 -36 -56 -13 8 -16
45 -6 71 10 24 39 14 42 -15z"/>
<path d="M2976 433 c-12 -42 -16 -110 -8 -138 14 -49 42 -39 73 25 l27 55 4
-55 c2 -41 7 -55 18 -55 17 0 36 110 26 151 -10 40 -42 30 -76 -22 l-29 -46
-3 48 c-3 48 -22 70 -32 37z"/>
<path d="M3194 405 c-42 -43 -64 -100 -49 -124 14 -24 55 -11 77 24 l23 34 11
-32 c6 -18 19 -34 29 -36 13 -2 16 1 11 14 -3 9 -6 50 -6 91 0 74 0 74 -27 74
-18 0 -39 -14 -69 -45z m36 -24 c0 -5 -9 -19 -21 -32 l-20 -24 17 33 c19 33
24 38 24 23z"/>
<path d="M3490 424 c-32 -84 19 -185 69 -135 20 20 20 20 26 0 4 -10 12 -19
19 -19 15 0 26 43 26 99 0 76 -34 80 -72 9 l-23 -43 -3 58 c-3 63 -24 79 -42
31z"/>
<path d="M398 430 c-9 -6 -22 -25 -28 -44 -21 -65 12 -116 76 -116 30 0 64 25
64 48 0 15 -17 16 -25 2 -8 -13 -62 -13 -70 -1 -3 6 7 16 22 23 39 18 61 61
44 82 -15 18 -57 21 -83 6z m42 -29 c0 -5 -7 -14 -15 -21 -12 -10 -15 -10 -15
2 0 8 3 18 7 21 9 10 23 9 23 -2z"/>
<path d="M2711 414 c-28 -35 -28 -97 -1 -124 30 -30 83 -27 109 7 25 31 20 41
-13 24 -13 -7 -31 -11 -41 -9 -22 4 -32 28 -13 28 19 0 58 42 58 61 0 45 -67
53 -99 13z m49 -13 c0 -5 -7 -14 -15 -21 -16 -14 -18 -10 -9 14 6 17 24 22 24
7z"/>
<path d="M3821 414 c-29 -37 -28 -94 2 -122 33 -31 80 -29 106 5 25 31 20 41
-13 24 -13 -7 -31 -11 -41 -9 -22 4 -32 28 -13 28 21 0 58 43 58 67 0 41 -69
46 -99 7z m49 -18 c0 -8 -7 -16 -15 -20 -17 -6 -18 -4 -9 18 8 20 24 21 24 2z"/>
</g>
</svg>
