<?xml version="1.0" encoding="UTF-8"?>
<svg version="1.1" xmlns="http://www.w3.org/2000/svg" width="1560" height="298">
<path d="M0 0 C514.8 0 1029.6 0 1560 0 C1560 98.34 1560 196.68 1560 298 C1045.2 298 530.4 298 0 298 C0 199.66 0 101.32 0 0 Z " fill="#000" transform="translate(0,0)"/>
<path d="M0 0 C75.03649635 0 75.03649635 0 87 11 C96.29053375 20.54448912 99.52596422 30.73291274 99.42114258 44.00927734 C98.97143737 56.57413057 93.65196494 66.78535589 84.6875 75.375 C80.6275691 79.13333603 76.20783667 80.47338284 71 82 C78.51858909 95.44975034 86.0517224 108.89062101 93.6472168 122.29711914 C94.63107109 124.03446262 95.61349059 125.77261967 96.59423828 127.51171875 C97.55078651 129.2048656 98.51292277 130.89486494 99.47998047 132.58203125 C99.93904785 133.39027344 100.39811523 134.19851562 100.87109375 135.03125 C101.28157959 135.74861328 101.69206543 136.46597656 102.11499023 137.20507812 C103 139 103 139 103 141 C97.6795 141.46074141 92.38020529 141.72424297 87.0390625 141.59765625 C86.16459473 141.57968994 85.29012695 141.56172363 84.38916016 141.54321289 C81.27090169 140.83422811 80.18207292 139.56041082 78.25 137.0625 C77.45913982 135.05730486 76.7143494 133.033709 76 131 C74.70436889 128.37358499 73.28024154 125.81904196 71.875 123.25 C71.10707638 121.79287575 70.34154887 120.33448681 69.578125 118.875 C66.64505309 113.30540689 63.63861291 107.77632806 60.625 102.25 C59.85712158 100.83895996 59.85712158 100.83895996 59.07373047 99.39941406 C58.58791504 98.50963867 58.10209961 97.61986328 57.6015625 96.703125 C56.95695068 95.52218262 56.95695068 95.52218262 56.29931641 94.31738281 C55.3538575 92.63111902 54.35958247 90.97194649 53.33740234 89.33105469 C52 87 52 87 52 85 C41.11 85 30.22 85 19 85 C19 103.48 19 121.96 19 141 C12.73 141 6.46 141 0 141 C0 94.47 0 47.94 0 0 Z " fill="#FFF" transform="translate(569,75)"/>
<path d="M0 0 C71.98021357 0 71.98021357 0 84.87890625 12.64453125 C95.39623245 24.32399294 96.85158558 35.78968166 96.46875 51.08203125 C95.76206967 63.49801199 90.03214701 72.61188435 81 81 C68.09869188 91.94414373 52.28082031 91.28989011 36.25 91.125 C30.5575 91.08375 24.865 91.0425 19 91 C19 107.5 19 124 19 141 C12.73 141 6.46 141 0 141 C0 94.47 0 47.94 0 0 Z " fill="#FFF" transform="translate(898,75)"/>
<path d="M0 0 C6.27 0 12.54 0 19 0 C23.80638545 11.79749156 28.36461917 23.62783472 32.63574219 35.62866211 C35.06897118 42.45312542 37.58474095 49.23845743 40.1875 56 C42.54905275 62.13762506 44.84050595 68.28833926 47 74.5 C49.08831827 80.49848036 51.28589112 86.4454581 53.5625 92.375 C57.12281328 101.65788753 60.62647623 110.96136942 64.10031128 120.2769165 C64.69930058 121.88182015 65.29949705 123.48627378 65.90090942 125.090271 C66.74962202 127.35458068 67.59409662 129.62042707 68.4375 131.88671875 C68.69647568 132.575345 68.95545135 133.26397125 69.22227478 133.97346497 C71 138.77153454 71 138.77153454 71 141 C64.4 141 57.8 141 51 141 C50.20335937 138.59267578 50.20335937 138.59267578 49.390625 136.13671875 C48.67716528 133.98695197 47.96361898 131.83721392 47.25 129.6875 C46.90195312 128.63498047 46.55390625 127.58246094 46.1953125 126.49804688 C44.18103799 120.43657266 42.08545119 114.42223835 39.82324219 108.44848633 C39 106 39 106 38 101 C19.19 101 0.38 101 -19 101 C-19.99 104.63 -20.98 108.26 -22 112 C-23.11284816 115.39276679 -24.24655804 118.76078702 -25.4375 122.125 C-25.72431641 122.95386719 -26.01113281 123.78273438 -26.30664062 124.63671875 C-28.27149831 130.22934264 -30.53274127 135.60998862 -33 141 C-39.27 141 -45.54 141 -52 141 C-50.11001785 135.33005356 -48.21068216 129.67263911 -46.21875 124.0390625 C-45.96250854 123.3140152 -45.70626709 122.5889679 -45.44226074 121.84194946 C-42.80193479 114.39940314 -40.07617256 106.98923703 -37.32275391 99.58789062 C-36.49790961 97.36937766 -35.67658587 95.14958227 -34.85546875 92.9296875 C-32.24498758 85.89204159 -29.58163875 78.88322871 -26.7734375 71.921875 C-24.7637799 66.93863671 -22.86271735 61.95863275 -21.125 56.875 C-18.91592706 50.49109076 -16.55794398 44.17677197 -14.125 37.875 C-10.75416199 29.13739017 -7.62760934 20.32929077 -4.61376953 11.46240234 C-4.30036621 10.54539551 -3.98696289 9.62838867 -3.6640625 8.68359375 C-3.39029785 7.87462646 -3.1165332 7.06565918 -2.83447266 6.23217773 C-2 4 -2 4 0 0 Z " fill="#FFF" transform="translate(771,75)"/>
<path d="M0 0 C7.31349726 5.97460898 12.10664277 13.70533724 14 23 C14 25.31 14 27.62 14 30 C8.06 30 2.12 30 -4 30 C-4.515625 28.329375 -5.03125 26.65875 -5.5625 24.9375 C-8.53109067 16.93565872 -12.69947132 12.8426899 -20.3125 9.0625 C-30.68892602 5.12571525 -43.53842867 5.27632822 -53.73046875 9.73828125 C-60.0419517 13.2470747 -63.91215161 16.87675255 -66 24 C-66.70135959 30.3122363 -65.75402534 34.81124658 -62 40 C-53.54443704 49.45687963 -38.17922389 51.01207985 -26.375 53.4375 C-11.2017088 56.59880847 2.9388847 61.34338371 12.5 74.375 C18.07883234 83.54697858 17.87811113 94.20736477 15.9375 104.4375 C13.62141007 113.74535436 8.09424524 121.74031535 0 127 C-3.5827683 128.90572782 -7.21620281 130.53608875 -11 132 C-11.63550781 132.26401611 -12.27101563 132.52803223 -12.92578125 132.80004883 C-19.38702906 135.26756198 -25.38697201 135.42667621 -32.25 135.3125 C-33.35666016 135.3012207 -34.46332031 135.28994141 -35.60351562 135.27832031 C-51.88007952 135.0052879 -65.93142495 132.46160421 -78.203125 120.9296875 C-86.0459927 112.59300961 -88.42654769 105.32568306 -89 94 C-83.06 94 -77.12 94 -71 94 C-70.34 95.835625 -69.68 97.67125 -69 99.5625 C-65.68538215 107.44516262 -61.27072236 111.80514584 -53.421875 115.1640625 C-47.85396926 117.31237813 -42.85043481 117.53157946 -36.9375 117.375 C-36.00873047 117.37371094 -35.07996094 117.37242187 -34.12304688 117.37109375 C-24.6482482 117.25141208 -16.57335624 115.9762539 -9 110 C-3.89012335 104.48671204 -2.50533892 100.24327362 -2.703125 92.81640625 C-3.26615162 87.47506157 -4.80927774 83.90615421 -8.89453125 80.3515625 C-19.27597334 73.38343953 -32.6298006 71.2148607 -44.66015625 68.734375 C-59.30723057 65.51373176 -72.89427124 60.46795164 -81.6015625 47.640625 C-86.48862427 38.63095804 -86.39221478 27.60863179 -84.1328125 17.76171875 C-80.9644642 7.24061732 -72.75869891 -0.64137316 -63.25 -5.8125 C-43.06279963 -14.96320645 -17.92935965 -13.51342478 0 0 Z " fill="#FFF" transform="translate(1223,83)"/>
<path d="M0 0 C5.94 0 11.88 0 18 0 C18.33 19.8 18.66 39.6 19 60 C44.08 60.33 69.16 60.66 95 61 C95 40.87 95 20.74 95 0 C100.94 0 106.88 0 113 0 C113 46.53 113 93.06 113 141 C107.06 141 101.12 141 95 141 C95 119.88 95 98.76 95 77 C69.59 77 44.18 77 18 77 C18 98.12 18 119.24 18 141 C12.06 141 6.12 141 0 141 C0 94.47 0 47.94 0 0 Z " fill="#FFF" transform="translate(237,75)"/>
<path d="M0 0 C29.04 0 58.08 0 88 0 C88 5.28 88 10.56 88 16 C64.9 16 41.8 16 18 16 C18 30.85 18 45.7 18 61 C39.78 61 61.56 61 84 61 C84 66.28 84 71.56 84 77 C62.22 77 40.44 77 18 77 C18 92.84 18 108.68 18 125 C41.1 125 64.2 125 88 125 C88 130.28 88 135.56 88 141 C58.96 141 29.92 141 0 141 C0 94.47 0 47.94 0 0 Z " fill="#FFF" transform="translate(418,75)"/>
<path d="M0 0 C35.31 0 70.62 0 107 0 C107 5.28 107 10.56 107 16 C92.15 16 77.3 16 62 16 C62 57.25 62 98.5 62 141 C56.06 141 50.12 141 44 141 C44 99.75 44 58.5 44 16 C29.48 16 14.96 16 0 16 C0 10.72 0 5.44 0 0 Z " fill="#FFF" transform="translate(1292,75)"/>
<path d="M0 0 C35.31 0 70.62 0 107 0 C107 5.28 107 10.56 107 16 C92.48 16 77.96 16 63 16 C63 57.25 63 98.5 63 141 C57.06 141 51.12 141 45 141 C45 99.75 45 58.5 45 16 C30.15 16 15.3 16 0 16 C0 10.72 0 5.44 0 0 Z " fill="#FFF" transform="translate(71,75)"/>
<path d="M0 0 C8.105625 -0.0928125 8.105625 -0.0928125 16.375 -0.1875 C18.05899902 -0.21481201 19.74299805 -0.24212402 21.47802734 -0.27026367 C32.81605643 -0.37726668 42.8925929 0.31170291 51.58984375 8.49609375 C58.2703951 15.5686579 59.58971454 23.24019383 59.35546875 32.77734375 C58.59437723 39.67734931 55.94687012 46.05312988 51 51 C43.08519596 57.25821715 33.61797535 59.13834558 23.73046875 59.09765625 C22.48418701 59.09515869 21.23790527 59.09266113 19.95385742 59.09008789 C18.38095947 59.08098389 16.80806152 59.07187988 15.1875 59.0625 C7.6696875 59.0315625 7.6696875 59.0315625 0 59 C0 39.53 0 20.06 0 0 Z " fill="#353535" transform="translate(917,91)"/>
<path d="M0 0 C9.095625 -0.0928125 9.095625 -0.0928125 18.375 -0.1875 C20.26782715 -0.21481201 22.1606543 -0.24212402 24.11083984 -0.27026367 C35.08713934 -0.36278939 45.05712473 -0.23947046 54 7 C60.16919275 13.85465861 60.90608171 19.93166691 61 29 C60.32795015 36.8192467 58.01520063 42.5094843 52 47.75 C44.66405498 53.25195877 37.00936954 53.15762197 28.125 53.09765625 C27.40570312 53.09664917 26.68640625 53.09564209 25.9453125 53.09460449 C23.29685843 53.08943173 20.64842736 53.07547123 18 53.0625 C12.06 53.041875 6.12 53.02125 0 53 C0 35.51 0 18.02 0 0 Z " fill="#353535" transform="translate(588,91)"/>
<path d="M0 0 C5.94 0 11.88 0 18 0 C18 46.53 18 93.06 18 141 C12.06 141 6.12 141 0 141 C0 94.47 0 47.94 0 0 Z " fill="#FFF" transform="translate(1458,75)"/>
<path d="M0 0 C5.94 0 11.88 0 18 0 C18 46.53 18 93.06 18 141 C12.06 141 6.12 141 0 141 C0 94.47 0 47.94 0 0 Z " fill="#FFF" transform="translate(1055,75)"/>
<path d="M0 0 C2.08088991 2.08088991 2.55498046 3.14737239 3.48046875 5.8671875 C3.75375 6.6600415 4.02703125 7.45289551 4.30859375 8.26977539 C4.59863281 9.12949951 4.88867188 9.98922363 5.1875 10.875 C5.81630987 12.70446021 6.44521884 14.53388637 7.07421875 16.36328125 C7.5544751 17.7702124 7.5544751 17.7702124 8.04443359 19.20556641 C9.51203067 23.4973692 11.00379248 27.78060146 12.5 32.0625 C12.78327148 32.87557617 13.06654297 33.68865234 13.35839844 34.52636719 C15.76871869 41.41416369 18.2885391 48.25967046 20.8671875 55.08618164 C23 60.78617219 23 60.78617219 23 63 C8.15 63 -6.7 63 -22 63 C-20.20561056 57.01870186 -18.47864791 51.39694769 -16.25 45.625 C-12.95100748 36.97976043 -9.91042324 28.25061766 -6.87451172 19.51025391 C-5.44929581 15.41922375 -4.00628521 11.33450654 -2.5625 7.25 C-2.30339844 6.516604 -2.04429687 5.78320801 -1.77734375 5.02758789 C-1.18513869 3.35163943 -0.59260992 1.67580535 0 0 Z " fill="#353535" transform="translate(780,97)"/>
</svg>
