<svg width="964.6" height="75.501" viewBox="0 0 964.6 75.501" xmlns="http://www.w3.org/2000/svg"><g id="svgGroup" stroke-linecap="round" fill-rule="evenodd" font-size="9pt" stroke="#ffffff" stroke-width="0.25mm" fill="#ffffff" style="stroke:#ffffff;stroke-width:0.25mm;fill:#ffffff"><path d="M 229.2 73.001 L 229.2 2.501 L 297.4 2.501 L 297.4 9.901 L 237.3 9.901 L 237.3 33.001 L 293.4 33.001 L 293.4 40.201 L 237.3 40.201 L 237.3 65.701 L 298.4 65.701 L 298.4 73.001 L 229.2 73.001 Z M 733.3 53.001 L 740.2 48.401 A 20.546 20.546 0 0 0 744.329 55.671 A 26.941 26.941 0 0 0 747.3 58.601 A 34.904 34.904 0 0 0 755.076 63.546 A 44.568 44.568 0 0 0 760.3 65.601 A 52.027 52.027 0 0 0 774.541 68.062 A 59.29 59.29 0 0 0 776.7 68.101 Q 784.1 68.101 789.85 66.301 A 29.627 29.627 0 0 0 793.788 64.772 Q 795.75 63.833 797.274 62.675 A 15.314 15.314 0 0 0 798.75 61.401 A 11.426 11.426 0 0 0 800.775 58.777 A 8.938 8.938 0 0 0 801.9 54.401 Q 801.9 49.701 796.85 46.651 Q 792.452 43.994 783.539 42.438 A 97.538 97.538 0 0 0 780.8 42.001 L 762.3 39.001 A 77.276 77.276 0 0 1 755.815 37.75 Q 749.422 36.208 745.558 33.823 A 18.155 18.155 0 0 1 744.2 32.901 Q 738.6 28.701 738.6 21.001 Q 738.6 14.701 742.55 9.901 A 22.202 22.202 0 0 1 748.607 4.833 A 30.306 30.306 0 0 1 753.55 2.551 Q 760.6 0.001 769.5 0.001 A 53.998 53.998 0 0 1 781.783 1.347 A 44.523 44.523 0 0 1 790.85 4.501 Q 800.3 9.001 804.2 16.301 L 797.9 21.201 A 21.981 21.981 0 0 0 792.253 14.676 A 31.21 31.21 0 0 0 786.8 11.251 Q 779.1 7.401 769.5 7.401 A 42.533 42.533 0 0 0 763.441 7.813 A 31.85 31.85 0 0 0 757.9 9.101 Q 752.8 10.801 749.9 13.751 Q 747 16.701 747 20.501 A 7.609 7.609 0 0 0 749.692 26.475 A 10.661 10.661 0 0 0 751 27.451 A 17.012 17.012 0 0 0 753.892 28.889 Q 757.712 30.397 763.9 31.301 L 782 34.101 A 100.717 100.717 0 0 1 789.684 35.58 Q 798.684 37.709 803.5 41.051 Q 810.2 45.701 810.2 53.701 Q 810.2 60.201 805.95 65.151 Q 801.817 69.964 794.422 72.65 A 40.27 40.27 0 0 1 794 72.801 A 46.287 46.287 0 0 1 785.17 74.908 A 63.186 63.186 0 0 1 776.3 75.501 A 64.612 64.612 0 0 1 762.913 74.154 A 56.718 56.718 0 0 1 757.25 72.651 A 50.483 50.483 0 0 1 748.595 68.988 A 40.411 40.411 0 0 1 742.2 64.701 A 32.655 32.655 0 0 1 736.6 58.859 A 27.277 27.277 0 0 1 733.3 53.001 Z M 112.3 73.001 L 112.3 2.501 L 120.6 2.501 L 120.6 32.401 L 179.6 32.401 L 179.6 2.501 L 187.9 2.501 L 187.9 73.001 L 179.6 73.001 L 179.6 39.701 L 120.6 39.701 L 120.6 73.001 L 112.3 73.001 Z M 397.4 66.201 L 391.5 52.601 A 18.108 18.108 0 0 0 389.378 48.852 A 14.76 14.76 0 0 0 386.85 46.201 Q 383.9 43.801 380.2 43.801 L 345 43.801 L 345 73.001 L 336.7 73.001 L 336.7 2.501 L 387.8 2.501 A 39.368 39.368 0 0 1 394.529 3.05 A 29.549 29.549 0 0 1 401.2 5.001 A 22.28 22.28 0 0 1 406.442 8.122 A 18.56 18.56 0 0 1 410.15 12.151 A 18.367 18.367 0 0 1 413.257 21.491 A 22.688 22.688 0 0 1 413.3 22.901 Q 413.3 30.901 407.55 36.151 A 21.683 21.683 0 0 1 399.203 40.821 Q 395.965 41.822 392.1 42.101 L 392.1 42.201 A 16.563 16.563 0 0 1 397.634 47.308 A 23.955 23.955 0 0 1 400.1 51.901 L 405 63.301 A 19.704 19.704 0 0 0 405.635 64.631 Q 405.989 65.303 406.356 65.846 A 8.214 8.214 0 0 0 407.1 66.801 Q 408.2 68.001 410 68.001 A 5.392 5.392 0 0 0 412.844 67.178 A 6.912 6.912 0 0 0 413.4 66.801 Q 415 65.601 416.2 63.401 L 420.4 68.301 A 18.304 18.304 0 0 1 417.175 71.941 A 12.439 12.439 0 0 1 408.9 75.001 Q 401.1 75.001 397.4 66.201 Z M 33.6 73.001 L 33.6 9.901 L 0 9.901 L 0 2.501 L 75.5 2.501 L 75.5 9.901 L 41.9 9.901 L 41.9 73.001 L 33.6 73.001 Z M 877.6 73.001 L 877.6 9.901 L 844 9.901 L 844 2.501 L 919.5 2.501 L 919.5 9.901 L 885.9 9.901 L 885.9 73.001 L 877.6 73.001 Z M 452.2 73.001 L 489.7 2.501 L 499.5 2.501 L 536.8 73.001 L 528 73.001 L 518.7 56.101 L 470.3 56.101 L 461.1 73.001 L 452.2 73.001 Z M 573.6 73.001 L 573.6 2.501 L 622.1 2.501 Q 631.116 2.501 637.254 5.428 A 21.582 21.582 0 0 1 641.9 8.401 A 19.23 19.23 0 0 1 648.541 20.399 A 28.261 28.261 0 0 1 648.9 25.001 A 26.211 26.211 0 0 1 647.943 32.013 A 19.083 19.083 0 0 1 641.85 41.501 A 22.822 22.822 0 0 1 633.745 45.832 Q 628.7 47.401 622.1 47.401 L 581.9 47.401 L 581.9 73.001 L 573.6 73.001 Z M 581.9 40.101 L 621 40.101 Q 627.32 40.101 631.697 38.315 A 16.111 16.111 0 0 0 635.5 36.151 A 12.855 12.855 0 0 0 640.51 26.856 A 18.629 18.629 0 0 0 640.6 25.001 Q 640.6 17.801 635.5 13.851 A 16.988 16.988 0 0 0 630.105 11.116 Q 627.704 10.366 624.798 10.079 A 38.66 38.66 0 0 0 621 9.901 L 581.9 9.901 L 581.9 40.101 Z M 345 36.501 L 387.2 36.501 A 28.515 28.515 0 0 0 392.53 36.032 Q 395.561 35.455 397.979 34.168 A 15.734 15.734 0 0 0 400.05 32.851 A 12.551 12.551 0 0 0 403.279 29.371 Q 404.875 26.753 404.9 23.407 A 14.286 14.286 0 0 0 404.9 23.301 A 12.335 12.335 0 0 0 403.904 18.276 Q 402.759 15.675 400.295 13.74 A 14.893 14.893 0 0 0 400.05 13.551 Q 395.699 10.277 388.814 9.94 A 33.009 33.009 0 0 0 387.2 9.901 L 345 9.901 L 345 36.501 Z M 686.7 73.001 L 686.7 2.501 L 695 2.501 L 695 73.001 L 686.7 73.001 Z M 956.3 73.001 L 956.3 2.501 L 964.6 2.501 L 964.6 73.001 L 956.3 73.001 Z M 474 48.701 L 515.1 48.701 L 494.7 9.801 L 494.5 9.801 L 474 48.701 Z" vector-effect="non-scaling-stroke"/></g></svg>